<?xml version="1.0" encoding="UTF-8"?>
<svg version="1.1" xmlns="http://www.w3.org/2000/svg" width="1037" height="211">
<path d="M0 0 C0.80146102 -0.00352842 1.60292204 -0.00705684 2.42866975 -0.01069218 C3.74337999 -0.00889551 3.74337999 -0.00889551 5.08465004 -0.00706255 C6.02271765 -0.00971438 6.96078527 -0.01236621 7.92727917 -0.01509839 C11.0943803 -0.02280389 14.26144274 -0.02335105 17.42855263 -0.02394831 C19.7127175 -0.02796211 21.99688166 -0.03240019 24.28104496 -0.03722787 C30.57671314 -0.04920845 36.87237365 -0.05484526 43.168051 -0.05940902 C49.25479747 -0.0642705 55.34153576 -0.07472655 61.42827604 -0.08441848 C77.73952435 -0.11004861 94.05077736 -0.12508439 110.36204002 -0.13792895 C115.7648302 -0.14218376 121.16762003 -0.14674949 126.57040977 -0.15151227 C155.29832341 -0.17677307 184.02623762 -0.19882084 212.75415993 -0.21124041 C219.41027262 -0.21416173 226.06638529 -0.21712925 232.72249794 -0.22014582 C233.54943498 -0.22051673 234.37637202 -0.22088764 235.22836776 -0.22126979 C262.03629462 -0.2334238 288.84415579 -0.26436538 315.65205181 -0.30606735 C343.21278861 -0.3488622 370.77349073 -0.37548235 398.33426166 -0.38071512 C402.22769153 -0.38145556 406.12112135 -0.38236624 410.01455116 -0.3833729 C410.7808046 -0.38356352 411.54705804 -0.38375413 412.33653128 -0.38395052 C424.66356634 -0.38746284 436.9905191 -0.40775495 449.31752395 -0.43416954 C461.71124247 -0.46032637 474.10486599 -0.46803645 486.49860817 -0.45706825 C493.21196082 -0.45162108 499.92502021 -0.45480188 506.63835144 -0.47953379 C512.78607207 -0.50199302 518.9333428 -0.50131157 525.08107114 -0.48232992 C527.30322922 -0.47952531 529.52541759 -0.48515387 531.74752688 -0.50014286 C544.63378144 -0.58173967 555.5115415 -0.53268337 566.33333778 7.37995183 C576.44474108 17.97285052 578.40965479 28.16506027 578.34652138 42.32331121 C578.35059152 43.85829323 578.35593588 45.39327232 578.36245155 46.9282459 C578.37607837 51.07907706 578.37084577 55.22968345 578.3613143 59.38051832 C578.3536936 63.73429865 578.36076999 68.08806036 578.36547279 72.44184148 C578.37092334 79.75181298 578.36375716 87.0616934 578.34945107 94.37165105 C578.33312589 102.81049417 578.33841489 111.2491198 578.35493028 119.68795764 C578.36856515 126.9468015 578.37045504 134.20558007 578.36261427 141.4644326 C578.35794874 145.79394916 578.35728198 150.12336367 578.36722374 154.45287359 C578.37592031 158.52415569 578.36982266 162.5951587 578.35254097 166.6664108 C578.34859045 168.15628062 578.34968549 169.64617412 578.35632896 171.13603437 C578.40426502 182.98267583 576.67694621 191.7635506 568.95833778 201.12995183 C562.75429161 206.82628165 555.50414474 211.24792168 546.91026354 211.25990367 C546.1073691 211.26343209 545.30447467 211.26696051 544.4772501 211.27059585 C543.59917226 211.26939807 542.72109442 211.2682003 541.81640816 211.26696622 C540.40677418 211.27094396 540.40677418 211.27094396 538.96866274 211.27500206 C535.79581822 211.28270764 532.62301233 211.28325472 529.45015907 211.28385198 C527.1618694 211.28786577 524.87358044 211.29230386 522.58529234 211.29713154 C516.27822258 211.30911218 509.97116048 211.31474894 503.66408157 211.31931269 C497.56632305 211.32417414 491.4685727 211.3346302 485.37082035 211.34432215 C469.03005376 211.36995234 452.68928249 211.38498807 436.34850157 211.39783262 C430.93593978 211.40208742 425.52337833 211.40665315 420.11081696 211.41141593 C391.33100245 211.43667672 362.55118737 211.45872452 333.77136421 211.47114408 C327.10321996 211.4740654 320.43507574 211.47703292 313.76693153 211.48004949 C312.93849965 211.4804204 312.11006777 211.48079131 311.25653189 211.48117346 C284.40010328 211.49332749 257.54374023 211.5242691 230.68734241 211.56597102 C203.07678736 211.60876575 175.46626693 211.635386 147.85567781 211.64061879 C143.95522064 211.64135923 140.05476352 211.64226991 136.15430641 211.64327657 C135.00285153 211.64356249 135.00285153 211.64356249 133.82813493 211.64385419 C121.47878394 211.64736653 109.1295151 211.66765871 96.78019428 211.69407321 C84.36407164 211.72022988 71.94804385 211.72794018 59.5318976 211.71697192 C52.80639354 211.71152471 46.08118222 211.71470582 39.35569954 211.73943746 C33.19687664 211.76189635 27.03850282 211.7612155 20.87967223 211.74223359 C18.6534765 211.73942893 16.42725054 211.7450578 14.20110351 211.76004653 C0.61056878 211.84594546 -11.99224845 211.88682379 -22.51431847 201.93073308 C-28.58794986 194.76975081 -32.27718673 186.97064846 -32.31581688 177.5288471 C-32.32579201 176.21691885 -32.33576714 174.90499059 -32.34604454 173.55330694 C-32.34694023 172.11124468 -32.34760385 170.66918227 -32.3480587 169.2271198 C-32.35568562 167.69892255 -32.36411403 166.17072912 -32.37328148 164.64254034 C-32.39518593 160.49965258 -32.40402037 156.35683862 -32.40910792 152.21389949 C-32.4127575 149.62104936 -32.4190008 147.02821838 -32.42610931 144.43537557 C-32.45059358 135.37652782 -32.46365267 126.31773722 -32.46719933 117.25885808 C-32.47082972 108.83709263 -32.50069196 100.41569269 -32.54260391 91.99403882 C-32.57739525 84.74706856 -32.59274932 77.50021886 -32.59344536 70.25316572 C-32.59423542 65.93231772 -32.60284805 61.61184197 -32.63144302 57.29108083 C-32.65777462 53.22134737 -32.65974583 49.15229072 -32.64378738 45.08251035 C-32.64198457 43.59752768 -32.64855697 42.11250474 -32.66460609 40.6276077 C-32.78395835 28.85730878 -31.00226381 19.13096555 -22.85416222 10.19245183 C-16.50647516 4.34366326 -8.78214586 0.01226665 0 0 Z " fill="#FEFEFE" transform="translate(32.04166221618652,-0.1299518346786499)"/>
<path d="M0 0 C16 0 16 0 19.90625 2.7109375 C21.26538086 4.46826172 21.26538086 4.46826172 22.5 6.375 C22.98025635 7.01840332 23.4605127 7.66180664 23.95532227 8.32470703 C24.91025506 9.60895462 25.84548044 10.90814206 26.75830078 12.22265625 C28.37360424 14.53476973 30.14492305 16.69856561 31.9375 18.875 C32.55625 19.65746094 33.175 20.43992187 33.8125 21.24609375 C36.66072412 24.83180447 39.54822469 28.38483486 42.4375 31.9375 C43.00331787 32.63343262 43.56913574 33.32936523 44.15209961 34.04638672 C47.2619626 37.86927341 50.37748938 41.68743179 53.5 45.5 C57.31707444 50.16294383 61.13045933 54.82886129 64.9375 59.5 C65.50597656 60.19544922 66.07445312 60.89089844 66.66015625 61.60742188 C67.19382812 62.26291016 67.7275 62.91839844 68.27734375 63.59375 C68.75421631 64.17833984 69.23108887 64.76292969 69.72241211 65.36523438 C70.88757295 66.85614151 71.95039878 68.42559817 73 70 C73.33 46.9 73.66 23.8 74 0 C80.6 0 87.2 0 94 0 C94 34.65 94 69.3 94 105 C77 105 77 105 71.9375 100.625 C70.58470422 98.77886219 69.2713653 96.90313203 68 95 C66.67964219 93.34373903 65.34642918 91.69763719 64 90.0625 C63.34386719 89.23105469 62.68773437 88.39960938 62.01171875 87.54296875 C59.97175167 84.96429192 57.89830173 82.41671468 55.8125 79.875 C50.4297657 73.31046469 45.07991911 66.71938598 39.72900391 60.12890625 C37.95935497 57.94995416 36.18879478 55.77174555 34.41796875 53.59375 C33.83499023 52.87662842 33.25201172 52.15950684 32.65136719 51.4206543 C31.53886998 50.05221934 30.42624715 48.68388649 29.31347656 47.31567383 C28.80655273 46.69200928 28.29962891 46.06834473 27.77734375 45.42578125 C27.33640381 44.88348877 26.89546387 44.34119629 26.44116211 43.7824707 C24.61884202 41.52857286 22.81063589 39.26329487 21 37 C20.67 59.77 20.34 82.54 20 106 C13.4 106 6.8 106 0 106 C0 71.02 0 36.04 0 0 Z " fill="#060606" transform="translate(250,46)"/>
<path d="M0 0 C6.6 0 13.2 0 20 0 C20 14.52 20 29.04 20 44 C37.82 44 55.64 44 74 44 C74 29.81 74 15.62 74 1 C80.27 1 86.54 1 93 1 C93 35.65 93 70.3 93 106 C86.73 106 80.46 106 74 106 C74 91.15 74 76.3 74 61 C56.18 61 38.36 61 20 61 C20 75.85 20 90.7 20 106 C13.4 106 6.8 106 0 106 C0 71.02 0 36.04 0 0 Z " fill="#050505" transform="translate(462,46)"/>
<path d="M0 0 C6.6 0 13.2 0 20 0 C25.1091337 10.05454931 29.94963265 20.14931063 34.47073364 30.4793396 C36.17668678 34.3758531 37.89604134 38.26642783 39.6171875 42.15625 C39.97295364 42.96035812 40.32871979 43.76446625 40.69526672 44.59294128 C45.39166348 55.17656617 50.2652774 65.67972537 55.15209961 76.17651367 C59.71675044 86.01418125 63.92891488 95.94669618 68 106 C60.74 106 53.48 106 46 106 C42.7 98.41 39.4 90.82 36 83 C18.84 83 1.68 83 -16 83 C-18.97 90.26 -21.94 97.52 -25 105 C-26 106 -26 106 -28.04125977 106.11352539 C-28.91580811 106.10828857 -29.79035645 106.10305176 -30.69140625 106.09765625 C-31.63564453 106.09443359 -32.57988281 106.09121094 -33.55273438 106.08789062 C-34.54595703 106.07951172 -35.53917969 106.07113281 -36.5625 106.0625 C-37.55958984 106.05798828 -38.55667969 106.05347656 -39.58398438 106.04882812 C-42.05604849 106.03700007 -44.52799518 106.02051849 -47 106 C-44.61701086 98.00892363 -41.18208919 90.56861879 -37.68014526 83.02362061 C-35.86449803 79.11127497 -34.06442131 75.19175985 -32.26171875 71.2734375 C-31.89782547 70.48365509 -31.53393219 69.69387268 -31.15901184 68.88015747 C-27.86888888 61.73361864 -24.64350232 54.5596507 -21.4375 47.375 C-14.36809533 31.54852548 -7.18613956 15.77372543 0 0 Z M9 23 C6.43400486 28.96205395 3.87079986 34.92530156 1.30957031 40.8894043 C0.43717274 42.91995682 -0.43587326 44.95023088 -1.30957031 46.98022461 C-2.56223701 49.8910414 -3.81260039 52.8028379 -5.0625 55.71484375 C-5.45622803 56.6283812 -5.84995605 57.54191864 -6.25561523 58.48313904 C-6.61598877 59.32393509 -6.9763623 60.16473114 -7.34765625 61.03100586 C-7.66742432 61.77491074 -7.98719238 62.51881561 -8.31665039 63.28526306 C-9.06170029 64.84717782 -9.06170029 64.84717782 -9 66 C3.54 66 16.08 66 29 66 C27.00993694 60.02981083 24.9836076 54.38843022 22.42578125 48.68359375 C22.09708542 47.94166275 21.76838959 47.19973175 21.42973328 46.43531799 C20.39450954 44.10097727 19.35362122 41.76921547 18.3125 39.4375 C17.60313681 37.84066302 16.89414914 36.24365917 16.18554688 34.64648438 C14.46135853 30.76238377 12.73209057 26.88058271 11 23 C10.34 23 9.68 23 9 23 Z " fill="#FFFFFF" transform="translate(792,46)"/>
<path d="M0 0 C1.046875 1.8046875 1.046875 1.8046875 1 4 C0.00390625 7.015625 0.00390625 7.015625 -1.4375 10.25 C-2.14712891 11.86648437 -2.14712891 11.86648437 -2.87109375 13.515625 C-3.24363281 14.33546875 -3.61617188 15.1553125 -4 16 C-5.3125 15.5625 -6.625 15.125 -7.9375 14.6875 C-9.16919922 14.27951172 -9.16919922 14.27951172 -10.42578125 13.86328125 C-12.07329007 13.31077829 -13.71700032 12.74673123 -15.35546875 12.16796875 C-25.7866158 8.52335111 -37.37481176 7.26228556 -48 11 C-51.52931367 13.25275341 -53.44277521 15.14201065 -55 19 C-55.21461651 22.12569691 -54.85081094 24.98601616 -54 28 C-48.97206906 33.61945223 -41.25381667 35.32928403 -34.125 36.8125 C-5.53547998 43.23693388 -5.53547998 43.23693388 2.38671875 53.859375 C6.7158226 60.96821922 7.13416172 68.89627226 5.3515625 76.91796875 C2.59144278 85.46962174 -1.79167282 90.4518432 -9.625 94.75 C-25.25028258 101.84814186 -44.73431537 102.42817749 -61 97 C-72.96048632 92.03951368 -72.96048632 92.03951368 -77 88 C-76.63805683 84.13707928 -75.21249765 81.10095701 -73.4375 77.6875 C-72.75494141 76.36298828 -72.75494141 76.36298828 -72.05859375 75.01171875 C-71.70925781 74.34785156 -71.35992187 73.68398437 -71 73 C-67.66659466 74.27574772 -64.5713359 75.73536578 -61.4375 77.4375 C-49.95525417 83.17014268 -36.95912608 85.13623469 -24.4375 81.75 C-20.03794147 80.22317952 -16.16038459 78.32076917 -14 74 C-13.63399851 70.12038425 -13.58127791 67.7502104 -15.5 64.3125 C-22.96006605 57.41193891 -33.16154792 56.02950294 -42.73828125 53.8203125 C-55.02109312 50.82923317 -66.79798312 46.49785737 -73.65234375 35.30078125 C-76.49500693 28.33831636 -76.24978502 19.37122878 -74.19140625 12.171875 C-69.70280057 3.28785269 -61.28043604 -2.89562879 -52 -6 C-51.3503125 -6.22429688 -50.700625 -6.44859375 -50.03125 -6.6796875 C-34.23006139 -11.11617507 -14.02375588 -8.36223959 0 0 Z " fill="#030303" transform="translate(126,53)"/>
<path d="M0 0 C3.48692865 2.84989361 6.778858 5.85424643 10 9 C6.19524578 13.56030824 2.25030379 17.85089392 -2 22 C-4.97201102 20.60101283 -7.57016987 18.95669648 -10.25 17.0625 C-19.74196385 10.80086579 -28.81223491 9.6268962 -40 11 C-49.08240154 13.28839905 -56.9127432 17.85232018 -61.78515625 25.9765625 C-67.17900012 36.45821654 -68.95939628 46.69058116 -65.875 58.375 C-62.90622768 66.83738838 -56.61074642 73.94580238 -48.75390625 78.22265625 C-39.25413805 82.46335277 -28.92147099 83.21221469 -19 80 C-13.00874497 77.58770844 -8.21879691 74.92192972 -4 70 C-0.09714233 71.58667578 2.33520982 74.13350481 5.25 77.125 C6.14203125 78.03507812 7.0340625 78.94515625 7.953125 79.8828125 C8.62859375 80.58148438 9.3040625 81.28015625 10 82 C2.19873731 92.00161884 -7.61692562 97.33214719 -20 100 C-32.55832412 100.90694143 -45.36583862 101.29429027 -57 96 C-57.93457031 95.59910156 -58.86914062 95.19820313 -59.83203125 94.78515625 C-73.45397 88.21233266 -81.90349366 76.90825601 -87 63 C-88.12304845 58.98239991 -88.73117996 55.15774992 -89 51 C-89.06832031 50.1853125 -89.13664063 49.370625 -89.20703125 48.53125 C-89.83260282 34.2589504 -84.97589022 20.49450568 -75.75 9.6875 C-56.85529902 -9.96298902 -23.41505248 -15.22719394 0 0 Z " fill="#FFFFFF" transform="translate(732,53)"/>
<path d="M0 0 C6.93 0 13.86 0 21 0 C22.14082031 2.01351562 23.28164062 4.02703125 24.45703125 6.1015625 C28.73371292 13.60846958 33.18786247 21.00028763 37.6875 28.375 C38.42789487 29.59235032 39.16812954 30.80979808 39.90820312 32.02734375 C43.56748311 38.04232159 47.25118996 44.04035327 51 50 C53.72834971 46.70596256 56.07757759 43.39337803 58.25 39.7109375 C59.15250488 38.18714478 59.15250488 38.18714478 60.07324219 36.63256836 C60.70907227 35.5575708 61.34490234 34.48257324 62 33.375 C62.6693457 32.2722876 63.33869141 31.1695752 64.02832031 30.03344727 C67.19643301 24.80772159 70.25412847 19.59784919 72.984375 14.12890625 C79.35219885 1.88369271 79.35219885 1.88369271 84.3671875 0.20996094 C90.04174142 -0.60586269 95.38795969 -0.00382729 101 1 C97.41085191 8.57211271 93.2487146 15.64810015 88.8125 22.75 C88.12921631 23.87631836 87.44593262 25.00263672 86.74194336 26.16308594 C83.40402597 31.65881867 80.01366239 37.05566898 76.24923706 42.27146912 C62.16994397 61.85974804 59.57347093 77.90623315 60.91967773 101.87426758 C60.94618408 102.90575928 60.97269043 103.93725098 61 105 C60 106 60 106 58.14233398 106.11352539 C56.95619507 106.10567017 56.95619507 106.10567017 55.74609375 106.09765625 C54.89208984 106.09443359 54.03808594 106.09121094 53.15820312 106.08789062 C52.26037109 106.07951172 51.36253906 106.07113281 50.4375 106.0625 C49.53580078 106.05798828 48.63410156 106.05347656 47.70507812 106.04882812 C45.46998686 106.03700225 43.23502563 106.0205222 41 106 C41.03254883 104.95360352 41.06509766 103.90720703 41.09863281 102.82910156 C42.04156922 74.93463198 42.04156922 74.93463198 29.91845703 50.59765625 C26.42946067 45.87343618 23.52842034 40.76768002 20.53585815 35.72070312 C18.74266232 32.70738079 16.91797113 29.71335608 15.09375 26.71875 C14.74436874 26.14406982 14.39498749 25.56938965 14.03501892 24.97729492 C11.86058459 21.40300482 9.67018096 17.83896486 7.46875 14.28125 C6.69059937 13.02078857 6.69059937 13.02078857 5.89672852 11.73486328 C4.95059469 10.20477635 4.00078168 8.67695594 3.04663086 7.15185547 C0 2.22173265 0 2.22173265 0 0 Z " fill="#050505" transform="translate(136,46)"/>
<path d="M0 0 C29.37 0 58.74 0 89 0 C89 5.61 89 11.22 89 17 C77.45 17 65.9 17 54 17 C54 46.37 54 75.74 54 106 C47.73 106 41.46 106 35 106 C33.18884376 104.18884376 33.88004624 101.70122499 33.87557983 99.29098511 C33.88097275 98.06208054 33.88097275 98.06208054 33.88647461 96.80834961 C33.88632858 95.94988937 33.88618256 95.09142914 33.8860321 94.20695496 C33.88673153 91.35539262 33.8945253 88.50389475 33.90234375 85.65234375 C33.90420782 83.68079158 33.90563178 81.70923895 33.90663147 79.73768616 C33.91045749 74.53773733 33.92028848 69.33781625 33.93133545 64.13787842 C33.94154778 58.83606339 33.94612871 53.5342439 33.95117188 48.23242188 C33.96191068 37.82160041 33.97950815 27.41080685 34 17 C22.78 17 11.56 17 0 17 C0 11.39 0 5.78 0 0 Z " fill="#070707" transform="translate(359,46)"/>
<path d="M0 0 C6.6 0 13.2 0 20 0 C20 29.37 20 58.74 20 89 C38.15 89 56.3 89 75 89 C75 94.61 75 100.22 75 106 C50.25 106 25.5 106 0 106 C0 71.02 0 36.04 0 0 Z " fill="#FFFFFF" transform="translate(962,46)"/>
<path d="M0 0 C6.6 0 13.2 0 20 0 C20 29.37 20 58.74 20 89 C38.15 89 56.3 89 75 89 C75 94.61 75 100.22 75 106 C50.25 106 25.5 106 0 106 C0 71.02 0 36.04 0 0 Z " fill="#FFFFFF" transform="translate(872,46)"/>
</svg>
